<mxfile host="app.diagrams.net" modified="2024-04-26T07:00:52.883Z" agent="Mozilla/5.0 (Windows NT 10.0; Win64; x64) AppleWebKit/537.36 (KHTML, like Gecko) Chrome/124.0.0.0 Safari/537.36" etag="azoXTlbDcjdbv-Fzy3Sp" version="24.3.0" type="device">
  <diagram name="Pagina-1" id="fZA9toT7rVKZVuJQwFUo">
    <mxGraphModel dx="955" dy="513" grid="1" gridSize="10" guides="1" tooltips="1" connect="1" arrows="1" fold="1" page="1" pageScale="1" pageWidth="827" pageHeight="1169" math="0" shadow="0">
      <root>
        <mxCell id="0" />
        <mxCell id="1" parent="0" />
        <mxCell id="IZvqJ5S1rM5zuDVxVFnE-1" value="utente registrato" style="shape=umlActor;verticalLabelPosition=bottom;verticalAlign=top;html=1;outlineConnect=0;fontSize=14;" parent="1" vertex="1">
          <mxGeometry x="260" y="190" width="30" height="60" as="geometry" />
        </mxCell>
        <mxCell id="IZvqJ5S1rM5zuDVxVFnE-3" value="&lt;span style=&quot;font-size: 14px;&quot;&gt;utente non registrato&lt;/span&gt;" style="shape=umlActor;verticalLabelPosition=bottom;verticalAlign=top;html=1;outlineConnect=0;" parent="1" vertex="1">
          <mxGeometry x="260" y="80" width="30" height="60" as="geometry" />
        </mxCell>
        <mxCell id="IZvqJ5S1rM5zuDVxVFnE-9" value="AUTENTICAZIONE" style="ellipse;whiteSpace=wrap;html=1;" parent="1" vertex="1">
          <mxGeometry x="455" y="60" width="126" height="50" as="geometry" />
        </mxCell>
        <mxCell id="IZvqJ5S1rM5zuDVxVFnE-10" value="REGISTRAZIONE" style="ellipse;whiteSpace=wrap;html=1;" parent="1" vertex="1">
          <mxGeometry x="455" y="120" width="126" height="50" as="geometry" />
        </mxCell>
        <mxCell id="IZvqJ5S1rM5zuDVxVFnE-11" value="RIEPILOGO PERSONALE" style="ellipse;whiteSpace=wrap;html=1;" parent="1" vertex="1">
          <mxGeometry x="455" y="365" width="126" height="50" as="geometry" />
        </mxCell>
        <mxCell id="IZvqJ5S1rM5zuDVxVFnE-12" value="NOLEGGIO" style="ellipse;whiteSpace=wrap;html=1;" parent="1" vertex="1">
          <mxGeometry x="455" y="240" width="126" height="50" as="geometry" />
        </mxCell>
        <mxCell id="IZvqJ5S1rM5zuDVxVFnE-13" value="RICONSEGNA" style="ellipse;whiteSpace=wrap;html=1;" parent="1" vertex="1">
          <mxGeometry x="455" y="300" width="126" height="50" as="geometry" />
        </mxCell>
        <mxCell id="IZvqJ5S1rM5zuDVxVFnE-16" value="VISUALIZZA MAPPA" style="ellipse;whiteSpace=wrap;html=1;" parent="1" vertex="1">
          <mxGeometry x="457" y="180" width="126" height="50" as="geometry" />
        </mxCell>
        <mxCell id="IZvqJ5S1rM5zuDVxVFnE-17" value="" style="endArrow=none;html=1;rounded=0;" parent="1" edge="1">
          <mxGeometry width="50" height="50" relative="1" as="geometry">
            <mxPoint x="435" y="730" as="sourcePoint" />
            <mxPoint x="435" y="40" as="targetPoint" />
          </mxGeometry>
        </mxCell>
        <mxCell id="IZvqJ5S1rM5zuDVxVFnE-18" value="" style="endArrow=none;html=1;rounded=0;" parent="1" edge="1">
          <mxGeometry width="50" height="50" relative="1" as="geometry">
            <mxPoint x="800" y="730" as="sourcePoint" />
            <mxPoint x="800" y="40" as="targetPoint" />
            <Array as="points">
              <mxPoint x="800" y="280" />
            </Array>
          </mxGeometry>
        </mxCell>
        <mxCell id="IZvqJ5S1rM5zuDVxVFnE-19" value="" style="endArrow=none;html=1;rounded=0;" parent="1" edge="1">
          <mxGeometry width="50" height="50" relative="1" as="geometry">
            <mxPoint x="800" y="731" as="sourcePoint" />
            <mxPoint x="435" y="731" as="targetPoint" />
            <Array as="points">
              <mxPoint x="625" y="731" />
            </Array>
          </mxGeometry>
        </mxCell>
        <mxCell id="IZvqJ5S1rM5zuDVxVFnE-20" value="" style="endArrow=none;html=1;rounded=0;" parent="1" edge="1">
          <mxGeometry width="50" height="50" relative="1" as="geometry">
            <mxPoint x="800" y="40" as="sourcePoint" />
            <mxPoint x="435" y="40" as="targetPoint" />
          </mxGeometry>
        </mxCell>
        <mxCell id="IZvqJ5S1rM5zuDVxVFnE-31" value="" style="endArrow=classic;html=1;rounded=0;exitX=0.5;exitY=0.5;exitDx=0;exitDy=0;exitPerimeter=0;" parent="1" edge="1" source="IZvqJ5S1rM5zuDVxVFnE-1">
          <mxGeometry width="50" height="50" relative="1" as="geometry">
            <mxPoint x="275" y="170" as="sourcePoint" />
            <mxPoint x="430" y="200" as="targetPoint" />
            <Array as="points">
              <mxPoint x="360" y="220" />
              <mxPoint x="360" y="200" />
            </Array>
          </mxGeometry>
        </mxCell>
        <mxCell id="IZvqJ5S1rM5zuDVxVFnE-32" value="" style="endArrow=classic;html=1;rounded=0;" parent="1" source="IZvqJ5S1rM5zuDVxVFnE-1" edge="1">
          <mxGeometry width="50" height="50" relative="1" as="geometry">
            <mxPoint x="260" y="70" as="sourcePoint" />
            <mxPoint x="430" y="80" as="targetPoint" />
            <Array as="points">
              <mxPoint x="360" y="220" />
              <mxPoint x="360" y="80" />
              <mxPoint x="390" y="80" />
            </Array>
          </mxGeometry>
        </mxCell>
        <mxCell id="IZvqJ5S1rM5zuDVxVFnE-33" value="" style="endArrow=classic;html=1;rounded=0;" parent="1" source="IZvqJ5S1rM5zuDVxVFnE-1" edge="1">
          <mxGeometry width="50" height="50" relative="1" as="geometry">
            <mxPoint x="290" y="350" as="sourcePoint" />
            <mxPoint x="430" y="260" as="targetPoint" />
            <Array as="points">
              <mxPoint x="360" y="220" />
              <mxPoint x="360" y="260" />
              <mxPoint x="390" y="260" />
            </Array>
          </mxGeometry>
        </mxCell>
        <mxCell id="IZvqJ5S1rM5zuDVxVFnE-34" value="" style="endArrow=classic;html=1;rounded=0;exitX=0.5;exitY=0.5;exitDx=0;exitDy=0;exitPerimeter=0;" parent="1" source="IZvqJ5S1rM5zuDVxVFnE-1" edge="1">
          <mxGeometry width="50" height="50" relative="1" as="geometry">
            <mxPoint x="300" y="180" as="sourcePoint" />
            <mxPoint x="430" y="330" as="targetPoint" />
            <Array as="points">
              <mxPoint x="360" y="220" />
              <mxPoint x="360" y="270" />
              <mxPoint x="360" y="330" />
            </Array>
          </mxGeometry>
        </mxCell>
        <mxCell id="IZvqJ5S1rM5zuDVxVFnE-36" value="&lt;span style=&quot;font-size: 14px;&quot;&gt;sistema&lt;/span&gt;" style="shape=umlActor;verticalLabelPosition=bottom;verticalAlign=top;html=1;outlineConnect=0;" parent="1" vertex="1">
          <mxGeometry x="250" y="605" width="30" height="60" as="geometry" />
        </mxCell>
        <mxCell id="IZvqJ5S1rM5zuDVxVFnE-38" value="" style="endArrow=classic;html=1;rounded=0;exitX=0.5;exitY=0.5;exitDx=0;exitDy=0;exitPerimeter=0;" parent="1" source="IZvqJ5S1rM5zuDVxVFnE-36" edge="1">
          <mxGeometry width="50" height="50" relative="1" as="geometry">
            <mxPoint x="540" y="350" as="sourcePoint" />
            <mxPoint x="430" y="580" as="targetPoint" />
            <Array as="points">
              <mxPoint x="350" y="635" />
              <mxPoint x="350" y="580" />
            </Array>
          </mxGeometry>
        </mxCell>
        <mxCell id="CK-f7_jl54tUr_vwuOst-3" value="&lt;span style=&quot;font-size: 14px;&quot;&gt;utente&lt;/span&gt;" style="shape=umlActor;verticalLabelPosition=bottom;verticalAlign=top;html=1;outlineConnect=0;" vertex="1" parent="1">
          <mxGeometry x="70" y="140" width="30" height="60" as="geometry" />
        </mxCell>
        <mxCell id="CK-f7_jl54tUr_vwuOst-8" value="" style="endArrow=classic;html=1;rounded=0;exitX=0.5;exitY=0.5;exitDx=0;exitDy=0;exitPerimeter=0;" edge="1" parent="1">
          <mxGeometry width="50" height="50" relative="1" as="geometry">
            <mxPoint x="276" y="115" as="sourcePoint" />
            <mxPoint x="431" y="150" as="targetPoint" />
            <Array as="points">
              <mxPoint x="390" y="115" />
              <mxPoint x="390" y="150" />
            </Array>
          </mxGeometry>
        </mxCell>
        <mxCell id="CK-f7_jl54tUr_vwuOst-9" value="" style="endArrow=classic;html=1;rounded=0;" edge="1" parent="1">
          <mxGeometry width="50" height="50" relative="1" as="geometry">
            <mxPoint x="290" y="115" as="sourcePoint" />
            <mxPoint x="430" y="185" as="targetPoint" />
            <Array as="points">
              <mxPoint x="390" y="115" />
              <mxPoint x="390" y="185" />
            </Array>
          </mxGeometry>
        </mxCell>
        <mxCell id="CK-f7_jl54tUr_vwuOst-10" value="" style="endArrow=classic;html=1;rounded=0;" edge="1" parent="1">
          <mxGeometry width="50" height="50" relative="1" as="geometry">
            <mxPoint x="110" y="180" as="sourcePoint" />
            <mxPoint x="230" y="120" as="targetPoint" />
          </mxGeometry>
        </mxCell>
        <mxCell id="CK-f7_jl54tUr_vwuOst-11" value="" style="endArrow=classic;html=1;rounded=0;" edge="1" parent="1">
          <mxGeometry width="50" height="50" relative="1" as="geometry">
            <mxPoint x="110" y="180" as="sourcePoint" />
            <mxPoint x="240" y="220" as="targetPoint" />
          </mxGeometry>
        </mxCell>
        <mxCell id="CK-f7_jl54tUr_vwuOst-31" style="edgeStyle=orthogonalEdgeStyle;rounded=0;orthogonalLoop=1;jettySize=auto;html=1;exitX=0.5;exitY=0.5;exitDx=0;exitDy=0;exitPerimeter=0;" edge="1" parent="1" source="CK-f7_jl54tUr_vwuOst-12">
          <mxGeometry relative="1" as="geometry">
            <mxPoint x="430" y="464.72727272727263" as="targetPoint" />
          </mxGeometry>
        </mxCell>
        <mxCell id="CK-f7_jl54tUr_vwuOst-12" value="&lt;span style=&quot;font-size: 14px;&quot;&gt;admin&lt;/span&gt;&lt;div&gt;&lt;span style=&quot;font-size: 14px;&quot;&gt;&lt;br&gt;&lt;/span&gt;&lt;/div&gt;" style="shape=umlActor;verticalLabelPosition=bottom;verticalAlign=top;html=1;outlineConnect=0;" vertex="1" parent="1">
          <mxGeometry x="260" y="435" width="30" height="60" as="geometry" />
        </mxCell>
        <mxCell id="CK-f7_jl54tUr_vwuOst-13" value="MONITORAGGIO" style="ellipse;whiteSpace=wrap;html=1;" vertex="1" parent="1">
          <mxGeometry x="455" y="550" width="126" height="50" as="geometry" />
        </mxCell>
        <mxCell id="CK-f7_jl54tUr_vwuOst-14" value="VISUALIZZA RIEPILOGO" style="ellipse;whiteSpace=wrap;html=1;" vertex="1" parent="1">
          <mxGeometry x="455" y="440" width="126" height="50" as="geometry" />
        </mxCell>
        <mxCell id="CK-f7_jl54tUr_vwuOst-16" value="stampa operazioni per utente" style="ellipse;whiteSpace=wrap;html=1;fontSize=10;" vertex="1" parent="1">
          <mxGeometry x="630" y="350" width="100" height="50" as="geometry" />
        </mxCell>
        <mxCell id="CK-f7_jl54tUr_vwuOst-18" value="stampa operazioni per stazione&lt;span style=&quot;color: rgba(0, 0, 0, 0); font-family: monospace; font-size: 0px; text-align: start; text-wrap: nowrap;&quot;&gt;%3CmxGraphModel%3E%3Croot%3E%3CmxCell%20id%3D%220%22%2F%3E%3CmxCell%20id%3D%221%22%20parent%3D%220%22%2F%3E%3CmxCell%20id%3D%222%22%20value%3D%22VISUALIZZA%20RIEPILOGO%22%20style%3D%22ellipse%3BwhiteSpace%3Dwrap%3Bhtml%3D1%3BfontSize%3D10%3B%22%20vertex%3D%221%22%20parent%3D%221%22%3E%3CmxGeometry%20x%3D%22630%22%20y%3D%22430%22%20width%3D%22100%22%20height%3D%2250%22%20as%3D%22geometry%22%2F%3E%3C%2FmxCell%3E%3C%2Froot%3E%3C%2FmxGraphModel%3E&lt;/span&gt;" style="ellipse;whiteSpace=wrap;html=1;fontSize=10;" vertex="1" parent="1">
          <mxGeometry x="630" y="410" width="100" height="50" as="geometry" />
        </mxCell>
        <mxCell id="CK-f7_jl54tUr_vwuOst-19" value="vedi possibilità noleggio" style="ellipse;whiteSpace=wrap;html=1;fontSize=10;" vertex="1" parent="1">
          <mxGeometry x="630" y="470" width="100" height="50" as="geometry" />
        </mxCell>
        <mxCell id="CK-f7_jl54tUr_vwuOst-20" value="vedi biciclette non riconsegnate" style="ellipse;whiteSpace=wrap;html=1;fontSize=10;" vertex="1" parent="1">
          <mxGeometry x="630" y="530" width="100" height="50" as="geometry" />
        </mxCell>
        <mxCell id="CK-f7_jl54tUr_vwuOst-22" value="" style="endArrow=classic;html=1;rounded=0;entryX=0;entryY=0.5;entryDx=0;entryDy=0;" edge="1" parent="1" target="CK-f7_jl54tUr_vwuOst-16">
          <mxGeometry width="50" height="50" relative="1" as="geometry">
            <mxPoint x="580" y="465" as="sourcePoint" />
            <mxPoint x="633" y="415" as="targetPoint" />
          </mxGeometry>
        </mxCell>
        <mxCell id="CK-f7_jl54tUr_vwuOst-23" value="" style="endArrow=classic;html=1;rounded=0;entryX=0;entryY=0.5;entryDx=0;entryDy=0;exitX=1;exitY=0.5;exitDx=0;exitDy=0;" edge="1" parent="1" source="CK-f7_jl54tUr_vwuOst-14" target="CK-f7_jl54tUr_vwuOst-18">
          <mxGeometry width="50" height="50" relative="1" as="geometry">
            <mxPoint x="590" y="475" as="sourcePoint" />
            <mxPoint x="640" y="385" as="targetPoint" />
          </mxGeometry>
        </mxCell>
        <mxCell id="CK-f7_jl54tUr_vwuOst-24" value="" style="endArrow=classic;html=1;rounded=0;entryX=0;entryY=0.5;entryDx=0;entryDy=0;exitX=1;exitY=0.5;exitDx=0;exitDy=0;" edge="1" parent="1" source="CK-f7_jl54tUr_vwuOst-14" target="CK-f7_jl54tUr_vwuOst-19">
          <mxGeometry width="50" height="50" relative="1" as="geometry">
            <mxPoint x="591" y="475" as="sourcePoint" />
            <mxPoint x="640" y="445" as="targetPoint" />
          </mxGeometry>
        </mxCell>
        <mxCell id="CK-f7_jl54tUr_vwuOst-25" value="" style="endArrow=classic;html=1;rounded=0;entryX=0;entryY=0.5;entryDx=0;entryDy=0;exitX=1;exitY=0.5;exitDx=0;exitDy=0;" edge="1" parent="1" source="CK-f7_jl54tUr_vwuOst-14" target="CK-f7_jl54tUr_vwuOst-20">
          <mxGeometry width="50" height="50" relative="1" as="geometry">
            <mxPoint x="591" y="475" as="sourcePoint" />
            <mxPoint x="640" y="505" as="targetPoint" />
          </mxGeometry>
        </mxCell>
        <mxCell id="CK-f7_jl54tUr_vwuOst-26" value="vedi biciclette che devono fare manutenzione" style="ellipse;whiteSpace=wrap;html=1;fontSize=10;" vertex="1" parent="1">
          <mxGeometry x="630" y="590" width="100" height="50" as="geometry" />
        </mxCell>
        <mxCell id="CK-f7_jl54tUr_vwuOst-27" value="" style="endArrow=classic;html=1;rounded=0;entryX=-0.032;entryY=0.362;entryDx=0;entryDy=0;entryPerimeter=0;" edge="1" parent="1" target="CK-f7_jl54tUr_vwuOst-26">
          <mxGeometry width="50" height="50" relative="1" as="geometry">
            <mxPoint x="580" y="460" as="sourcePoint" />
            <mxPoint x="630" y="575" as="targetPoint" />
          </mxGeometry>
        </mxCell>
        <mxCell id="CK-f7_jl54tUr_vwuOst-28" value="" style="endArrow=classic;html=1;rounded=0;exitX=0.5;exitY=0.5;exitDx=0;exitDy=0;exitPerimeter=0;" edge="1" parent="1" source="IZvqJ5S1rM5zuDVxVFnE-1">
          <mxGeometry width="50" height="50" relative="1" as="geometry">
            <mxPoint x="285" y="230" as="sourcePoint" />
            <mxPoint x="430" y="390" as="targetPoint" />
            <Array as="points">
              <mxPoint x="360" y="220" />
              <mxPoint x="360" y="280" />
              <mxPoint x="360" y="390" />
            </Array>
          </mxGeometry>
        </mxCell>
        <mxCell id="CK-f7_jl54tUr_vwuOst-29" value="TARIFAZIONE SERVIZIO" style="ellipse;whiteSpace=wrap;html=1;" vertex="1" parent="1">
          <mxGeometry x="455" y="650" width="126" height="50" as="geometry" />
        </mxCell>
        <mxCell id="CK-f7_jl54tUr_vwuOst-30" value="" style="endArrow=classic;html=1;rounded=0;exitX=0.5;exitY=0.5;exitDx=0;exitDy=0;exitPerimeter=0;" edge="1" parent="1" source="IZvqJ5S1rM5zuDVxVFnE-36">
          <mxGeometry width="50" height="50" relative="1" as="geometry">
            <mxPoint x="275" y="645" as="sourcePoint" />
            <mxPoint x="430" y="680" as="targetPoint" />
            <Array as="points">
              <mxPoint x="350" y="635" />
              <mxPoint x="350" y="680" />
            </Array>
          </mxGeometry>
        </mxCell>
      </root>
    </mxGraphModel>
  </diagram>
</mxfile>
